<svg width="1267.2" height="712.8000000000001" xmlns="http://www.w3.org/2000/svg" xmlns:xlink="http://www.w3.org/1999/xlink"><line x1="93.0" y1="7.5" x2="15.0" y2="32.0" style="stroke:black; stroke-width:1px;" />
<line x1="93.0" y1="7.5" x2="59.0" y2="32.0" style="stroke:black; stroke-width:1px;" />
<line x1="93.0" y1="7.5" x2="92.0" y2="32.0" style="stroke:black; stroke-width:1px;" />
<line x1="93.0" y1="7.5" x2="131.5" y2="32.0" style="stroke:black; stroke-width:1px;" />
<line x1="131.5" y1="39.5" x2="131.5" y2="64.0" style="stroke:black; stroke-width:1px;" />
<line x1="131.5" y1="71.5" x2="73.5" y2="96.0" style="stroke:black; stroke-width:1px;" />
<line x1="73.5" y1="103.5" x2="73.5" y2="128.0" style="stroke:black; stroke-width:1px;" />
<line x1="131.5" y1="71.5" x2="125.0" y2="96.0" style="stroke:black; stroke-width:1px;" />
<line x1="131.5" y1="71.5" x2="149.0" y2="96.0" style="stroke:black; stroke-width:1px;" />
<line x1="131.5" y1="71.5" x2="164.0" y2="96.0" style="stroke:black; stroke-width:1px;" />
<line x1="131.5" y1="71.5" x2="189.5" y2="96.0" style="stroke:black; stroke-width:1px;" />
<line x1="189.5" y1="103.5" x2="153.0" y2="128.0" style="stroke:black; stroke-width:1px;" />
<line x1="189.5" y1="103.5" x2="189.5" y2="128.0" style="stroke:black; stroke-width:1px;" />
<line x1="189.5" y1="135.5" x2="170.25" y2="160.0" style="stroke:black; stroke-width:1px;" />
<line x1="170.25" y1="167.5" x2="137.5" y2="192.0" style="stroke:black; stroke-width:1px;" />
<line x1="170.25" y1="167.5" x2="161.0" y2="192.0" style="stroke:black; stroke-width:1px;" />
<line x1="170.25" y1="167.5" x2="182.0" y2="192.0" style="stroke:black; stroke-width:1px;" />
<line x1="182.0" y1="199.5" x2="182.0" y2="224.0" style="stroke:black; stroke-width:1px;" />
<line x1="182.0" y1="231.5" x2="182.0" y2="256.0" style="stroke:black; stroke-width:1px;" />
<line x1="182.0" y1="263.5" x2="182.0" y2="288.0" style="stroke:black; stroke-width:1px;" />
<line x1="182.0" y1="295.5" x2="166.5" y2="320.0" style="stroke:black; stroke-width:1px;" />
<line x1="182.0" y1="295.5" x2="182.0" y2="320.0" style="stroke:black; stroke-width:1px;" />
<line x1="182.0" y1="295.5" x2="197.5" y2="320.0" style="stroke:black; stroke-width:1px;" />
<line x1="170.25" y1="167.5" x2="203.0" y2="192.0" style="stroke:black; stroke-width:1px;" />
<line x1="189.5" y1="135.5" x2="208.75" y2="160.0" style="stroke:black; stroke-width:1px;" />
<line x1="189.5" y1="103.5" x2="226.0" y2="128.0" style="stroke:black; stroke-width:1px;" />
<line x1="93.0" y1="7.5" x2="171.0" y2="32.0" style="stroke:black; stroke-width:1px;" />
<rect x="0.0" y="32.0" width="30.0" height="15.0" style="fill:orange; stroke:rgb(0,0,0);" rx="1"/>
<text x="2" y="41" style="font-family:sans-serif;font-size:10px;">
class
</text>
<rect x="157.0" y="192.0" width="8.0" height="15.0" style="fill:orange; stroke:rgb(0,0,0);" rx="1"/>
<text x="159" y="201" style="font-family:sans-serif;font-size:10px;">
(
</text>
<rect x="142.25" y="160.0" width="56.0" height="15.0" style="fill:orange; stroke:rgb(0,0,0);" rx="1"/>
<text x="144" y="169" style="font-family:sans-serif;font-size:10px;">
methodCall
</text>
<rect x="153.5" y="288.0" width="57.0" height="15.0" style="fill:orange; stroke:rgb(0,0,0);" rx="1"/>
<text x="155" y="297" style="font-family:sans-serif;font-size:10px;">
char_literal
</text>
<rect x="222.0" y="128.0" width="8.0" height="15.0" style="fill:orange; stroke:rgb(0,0,0);" rx="1"/>
<text x="224" y="137" style="font-family:sans-serif;font-size:10px;">
}
</text>
<rect x="160.0" y="96.0" width="8.0" height="15.0" style="fill:orange; stroke:rgb(0,0,0);" rx="1"/>
<text x="162" y="105" style="font-family:sans-serif;font-size:10px;">
)
</text>
<rect x="153.0" y="224.0" width="58.0" height="15.0" style="fill:orange; stroke:rgb(0,0,0);" rx="1"/>
<text x="155" y="233" style="font-family:sans-serif;font-size:10px;">
expression
</text>
<rect x="85.0" y="64.0" width="93.0" height="15.0" style="fill:orange; stroke:rgb(0,0,0);" rx="1"/>
<text x="87" y="73" style="font-family:sans-serif;font-size:10px;">
methodDeclaration
</text>
<rect x="145.0" y="96.0" width="8.0" height="15.0" style="fill:orange; stroke:rgb(0,0,0);" rx="1"/>
<text x="147" y="105" style="font-family:sans-serif;font-size:10px;">
(
</text>
<rect x="199.0" y="192.0" width="8.0" height="15.0" style="fill:orange; stroke:rgb(0,0,0);" rx="1"/>
<text x="201" y="201" style="font-family:sans-serif;font-size:10px;">
)
</text>
<rect x="80.0" y="0.0" width="26.0" height="15.0" style="fill:orange; stroke:rgb(0,0,0);" rx="1"/>
<text x="82" y="9" style="font-family:sans-serif;font-size:10px;">
start
</text>
<rect x="61.5" y="128.0" width="24.0" height="15.0" style="fill:orange; stroke:rgb(0,0,0);" rx="1"/>
<text x="63" y="137" style="font-family:sans-serif;font-size:10px;">
void
</text>
<rect x="175.0" y="96.0" width="29.0" height="15.0" style="fill:orange; stroke:rgb(0,0,0);" rx="1"/>
<text x="177" y="105" style="font-family:sans-serif;font-size:10px;">
block
</text>
<rect x="172.0" y="192.0" width="20.0" height="15.0" style="fill:orange; stroke:rgb(0,0,0);" rx="1"/>
<text x="174" y="201" style="font-family:sans-serif;font-size:10px;">
arg
</text>
<rect x="167.5" y="256.0" width="29.0" height="15.0" style="fill:orange; stroke:rgb(0,0,0);" rx="1"/>
<text x="169" y="265" style="font-family:sans-serif;font-size:10px;">
literal
</text>
<rect x="167.0" y="32.0" width="8.0" height="15.0" style="fill:orange; stroke:rgb(0,0,0);" rx="1"/>
<text x="169" y="41" style="font-family:sans-serif;font-size:10px;">
}
</text>
<rect x="164.0" y="128.0" width="51.0" height="15.0" style="fill:orange; stroke:rgb(0,0,0);" rx="1"/>
<text x="166" y="137" style="font-family:sans-serif;font-size:10px;">
statement
</text>
<rect x="103.0" y="32.0" width="57.0" height="15.0" style="fill:orange; stroke:rgb(0,0,0);" rx="1"/>
<text x="105" y="41" style="font-family:sans-serif;font-size:10px;">
declaration
</text>
<rect x="112.0" y="96.0" width="26.0" height="15.0" style="fill:orange; stroke:rgb(0,0,0);" rx="1"/>
<text x="114" y="105" style="font-family:sans-serif;font-size:10px;">
main
</text>
<rect x="205.25" y="160.0" width="7.0" height="15.0" style="fill:orange; stroke:rgb(0,0,0);" rx="1"/>
<text x="207" y="169" style="font-family:sans-serif;font-size:10px;">
;
</text>
<rect x="194.5" y="320.0" width="6.0" height="15.0" style="fill:orange; stroke:rgb(0,0,0);" rx="1"/>
<text x="196" y="329" style="font-family:sans-serif;font-size:10px;">
'
</text>
<rect x="37.0" y="32.0" width="44.0" height="15.0" style="fill:orange; stroke:rgb(0,0,0);" rx="1"/>
<text x="39" y="41" style="font-family:sans-serif;font-size:10px;">
Program
</text>
<rect x="176.5" y="320.0" width="11.0" height="15.0" style="fill:orange; stroke:rgb(0,0,0);" rx="1"/>
<text x="178" y="329" style="font-family:sans-serif;font-size:10px;">
H
</text>
<rect x="42.0" y="96.0" width="63.0" height="15.0" style="fill:orange; stroke:rgb(0,0,0);" rx="1"/>
<text x="44" y="105" style="font-family:sans-serif;font-size:10px;">
methodType
</text>
<rect x="88.0" y="32.0" width="8.0" height="15.0" style="fill:orange; stroke:rgb(0,0,0);" rx="1"/>
<text x="90" y="41" style="font-family:sans-serif;font-size:10px;">
{
</text>
<rect x="149.0" y="128.0" width="8.0" height="15.0" style="fill:orange; stroke:rgb(0,0,0);" rx="1"/>
<text x="151" y="137" style="font-family:sans-serif;font-size:10px;">
{
</text>
<rect x="163.5" y="320.0" width="6.0" height="15.0" style="fill:orange; stroke:rgb(0,0,0);" rx="1"/>
<text x="165" y="329" style="font-family:sans-serif;font-size:10px;">
'
</text>
<rect x="125.0" y="192.0" width="25.0" height="15.0" style="fill:orange; stroke:rgb(0,0,0);" rx="1"/>
<text x="127" y="201" style="font-family:sans-serif;font-size:10px;">
print
</text>
</svg>